# xmcd
#
# Track frame offsets: 
#        150
#        16467
#        35711
#        51552
#        70915
#        89654
#        105975
#        125004
#
# Disc length: 1957 seconds
#
# Revision: 0
# Processed by: cddbd v1.5.2PL0 Copyright (c) Steve Scherf et al.
# Submitted via: ExactAudioCopy v1.3
#
DISCID=7207a308
DTITLE=New Soul Cowboys - Coming Back For You
DYEAR=2019
DGENRE=Blues Rock
TTITLE0=Painted Horse
TTITLE1=Rebel Highway
TTITLE2=What It's All About
TTITLE3=Won't Let You Down
TTITLE4=Born To Ride
TTITLE5=Carolina
TTITLE6=Amazing
TTITLE7=Coming Back For You
EXTD=
EXTT0=
EXTT1=
EXTT2=
EXTT3=
EXTT4=
EXTT5=
EXTT6=
EXTT7=
PLAYORDER=
